<?xml version="1.0" encoding="utf-8"?>
<!-- Generator: Adobe Illustrator 23.0.1, SVG Export Plug-In . SVG Version: 6.00 Build 0)  -->
<svg version="1.1" id="Layer_1" xmlns="http://www.w3.org/2000/svg" xmlns:xlink="http://www.w3.org/1999/xlink" x="0px" y="0px"
	 viewBox="0 0 136.14 36.6" style="enable-background:new 0 0 136.14 36.6;" xml:space="preserve">
<style type="text/css">
	.st0{fill:#FFFFFF;}
</style>
<g>
	<path class="st0" d="M24.41,18.48c0,1.8-0.51,3.17-1.54,4.13s-2.5,1.43-4.43,1.43h-3.09V13.12h3.43c1.78,0,3.17,0.47,4.15,1.41
		C23.92,15.48,24.41,16.79,24.41,18.48z M22.01,18.54c0-2.35-1.04-3.52-3.11-3.52h-1.23v7.11h0.99
		C20.89,22.13,22.01,20.94,22.01,18.54z"/>
	<path class="st0" d="M36.59,18.57c0,1.81-0.45,3.2-1.34,4.17c-0.9,0.97-2.18,1.46-3.85,1.46c-1.67,0-2.96-0.49-3.85-1.46
		c-0.9-0.97-1.34-2.37-1.34-4.18c0-1.82,0.45-3.21,1.35-4.16s2.19-1.44,3.87-1.44c1.68,0,2.96,0.48,3.85,1.45
		C36.14,15.37,36.59,16.76,36.59,18.57z M28.62,18.57c0,1.22,0.23,2.14,0.69,2.76c0.46,0.62,1.16,0.93,2.08,0.93
		c1.85,0,2.77-1.23,2.77-3.68c0-2.46-0.92-3.69-2.76-3.69c-0.92,0-1.62,0.31-2.08,0.93C28.85,16.43,28.62,17.35,28.62,18.57z"/>
	<path class="st0" d="M48.54,24.05H45.6l-4.75-8.26h-0.07c0.09,1.46,0.14,2.5,0.14,3.12v5.14h-2.07V13.12h2.92l4.74,8.18h0.05
		c-0.07-1.42-0.11-2.42-0.11-3.01v-5.17h2.08V24.05z"/>
	<path class="st0" d="M57.97,24.05l-0.79-2.6H53.2l-0.79,2.6h-2.5l3.85-10.97h2.83l3.87,10.97H57.97z M56.63,19.5
		c-0.73-2.35-1.14-3.69-1.24-4s-0.16-0.55-0.2-0.73c-0.16,0.64-0.63,2.21-1.41,4.73H56.63z"/>
	<path class="st0" d="M66.06,24.05h-2.32v-8.99h-2.97v-1.93h8.25v1.93h-2.97V24.05z"/>
	<path class="st0" d="M76.99,24.05H70.7V13.12h6.29v1.9h-3.97v2.4h3.7v1.9h-3.7v2.82h3.97V24.05z"/>
	<path class="st0" d="M92.93,24.05h-2.94l-4.75-8.26h-0.07c0.09,1.46,0.14,2.5,0.14,3.12v5.14h-2.07V13.12h2.92l4.74,8.18h0.05
		c-0.07-1.42-0.11-2.42-0.11-3.01v-5.17h2.08V24.05z"/>
	<path class="st0" d="M105.6,18.57c0,1.81-0.45,3.2-1.34,4.17c-0.9,0.97-2.18,1.46-3.85,1.46s-2.96-0.49-3.85-1.46
		c-0.9-0.97-1.34-2.37-1.34-4.18c0-1.82,0.45-3.21,1.35-4.16c0.9-0.96,2.19-1.44,3.87-1.44c1.68,0,2.96,0.48,3.85,1.45
		C105.15,15.37,105.6,16.76,105.6,18.57z M97.62,18.57c0,1.22,0.23,2.14,0.7,2.76c0.46,0.62,1.16,0.93,2.08,0.93
		c1.85,0,2.77-1.23,2.77-3.68c0-2.46-0.92-3.69-2.76-3.69c-0.92,0-1.62,0.31-2.08,0.93C97.86,16.43,97.62,17.35,97.62,18.57z"/>
	<path class="st0" d="M118.5,24.05h-2.64l-1.48-5.74c-0.05-0.2-0.15-0.63-0.28-1.27c-0.13-0.64-0.21-1.07-0.23-1.29
		c-0.03,0.27-0.1,0.7-0.22,1.3c-0.12,0.6-0.21,1.02-0.28,1.27l-1.47,5.72h-2.63l-2.79-10.92h2.28l1.4,5.96
		c0.24,1.1,0.42,2.05,0.53,2.86c0.03-0.28,0.1-0.72,0.21-1.32c0.11-0.6,0.21-1.06,0.3-1.39l1.59-6.12h2.19l1.59,6.12
		c0.07,0.27,0.16,0.69,0.26,1.26s0.18,1.05,0.24,1.45c0.05-0.39,0.13-0.87,0.24-1.45c0.11-0.58,0.21-1.05,0.3-1.41l1.39-5.96h2.28
		L118.5,24.05z"/>
</g>
<path class="st0" d="M132.14,4v28.6H4V4H132.14 M136.14,0h-4H4H0v4v28.6v4h4h128.14h4v-4V4V0L136.14,0z"/>
</svg>
