<?xml version="1.0" encoding="utf-8"?>
<!-- Generator: Adobe Illustrator 23.0.0, SVG Export Plug-In . SVG Version: 6.00 Build 0)  -->
<svg version="1.1" id="Layer_1" xmlns="http://www.w3.org/2000/svg" xmlns:xlink="http://www.w3.org/1999/xlink" x="0px" y="0px"
	 viewBox="0 0 189.06 206.25" style="enable-background:new 0 0 189.06 206.25;" xml:space="preserve">
<style type="text/css">
	.st0{fill:#3FA9F5;}
</style>
<path class="st0" d="M188.54,114.89c-1.72-6.22-8.41-10.52-16.22-10.52c-0.45,0-0.91,0.01-1.37,0.04c-0.05,0-0.1,0-0.15,0.01
	c-4.45,0.3-8.76,1.99-12.59,4.84c-11.71-20.72-36.91-35.07-66.13-35.07c-11.17,0-21.75,2.1-31.23,5.85L60.91,80
	c-8.08-7.65-19.93-9.67-33.9-5.64c6.79,6.69,9.47,13.37,10.24,20.54l0.05-0.04c-13.73,11-12.52,20.93-18.55,26.14
	c-3.41,2.96-11.4-0.31-15.28,2.89c-4.26,3.52-4.62,21.18-0.98,25.68c3.41,4.22,18.88,3.45,18.88,3.45c0,4.57-3.51,9.29-8.56,11.33
	c0,0,3.33,8.17,21.09,8.17c0.01,0,7.19,8.44,16.21,12.91c0,0,0.46,13.96,4.33,17.83c3.89,3.89,18.34,4.05,21.61,0
	c1.88-2.31,2.15-7.84,2.15-7.84c4.5,0.72,9.13,1.12,13.88,1.12c8.29,0,16.24-1.17,23.67-3.3c0,0-0.2,7.53,2.29,10.02
	c3.79,3.79,18.27,4.14,21.61,0c4.52-5.6,4.19-24.7,4.19-24.7c13.19-11.07,21.35-26.34,21.35-43.2c0-6.19-1.11-12.17-3.16-17.8
	c0.95-0.86,1.9-1.57,2.81-2.14c-0.12,5.21,1.97,10.16,5.94,12.79c1.92,1.27,4.19,1.9,6.48,1.9h0.01c2.53,0,5.07-0.77,7.17-2.29
	C188.44,124.92,189.97,120.09,188.54,114.89 M108.66,91.49c-5.73-1.4-11.88-2.03-18.16-1.87c-6.33,0.16-12.4,1.09-18.06,2.77
	l-1.69-5.68c6.16-1.83,12.75-2.84,19.6-3.01c6.8-0.18,13.47,0.51,19.71,2.04L108.66,91.49z M179.23,120.63
	c-0.55,0.4-1.26,0.6-1.95,0.6c-0.58,0-1.14-0.15-1.59-0.44c-1.63-1.08-2.41-4.3-1.63-7.4c3.11,0.49,5.43,2.16,5.9,3.85
	C180.62,119.62,179.57,120.38,179.23,120.63 M182.48,103.8c0.28-0.13,0.54-0.29,0.83-0.4c2.3-0.85,3.48-3.41,2.63-5.71
	c-0.85-2.31-3.42-3.48-5.71-2.63c-3.75,1.39-6.85,3.61-9.29,6.38c0.46-0.03,0.92-0.04,1.38-0.04
	C176.03,101.4,179.5,102.29,182.48,103.8 M97.42,64.59c17.83,0,32.29-14.46,32.29-32.29c0-17.84-14.46-32.3-32.29-32.3
	C79.58,0,65.13,14.46,65.13,32.3C65.12,50.13,79.58,64.59,97.42,64.59 M99.83,37.82c-0.64-0.74-1.77-1.45-3.4-2.11
	c-1.61-0.67-3.11-1.34-4.49-2.01c-1.37-0.68-2.55-1.46-3.56-2.36c-0.98-0.9-1.74-1.93-2.28-3.11c-0.53-1.17-0.79-2.6-0.79-4.27
	c0-2.79,0.94-5.1,2.83-6.92c1.88-1.82,4.4-2.87,7.53-3.16V9.71h3.95V14c3.03,0.44,5.4,1.69,7.13,3.74c1.74,2.04,2.6,4.64,2.6,7.78
	h-8.39c0-1.72-0.33-3.04-1-3.97c-0.67-0.93-1.61-1.39-2.83-1.39c-1.1,0-1.94,0.35-2.55,1.02c-0.61,0.69-0.91,1.64-0.91,2.85
	c0,1.22,0.35,2.2,1.04,2.91c0.7,0.72,1.82,1.4,3.35,2.06c1.54,0.65,3,1.32,4.35,2.04c1.37,0.7,2.55,1.5,3.54,2.39
	c0.99,0.9,1.77,1.94,2.33,3.13c0.57,1.18,0.85,2.61,0.85,4.29c0,2.83-0.91,5.14-2.7,6.92c-1.79,1.79-4.24,2.83-7.33,3.13v3.98h-3.94
	v-4.01c-3.61-0.38-6.38-1.62-8.3-3.71c-1.93-2.09-2.9-4.86-2.9-8.29h8.37c0,1.9,0.41,3.33,1.25,4.32c0.83,0.98,2.03,1.48,3.56,1.48
	c1.13,0,2.01-0.33,2.65-1.01c0.65-0.66,0.97-1.58,0.97-2.77C100.79,39.6,100.47,38.56,99.83,37.82"/>
</svg>
