<?xml version="1.0" encoding="utf-8"?>
<!-- Generator: Adobe Illustrator 23.0.0, SVG Export Plug-In . SVG Version: 6.00 Build 0)  -->
<svg version="1.1" id="Layer_1" xmlns="http://www.w3.org/2000/svg" xmlns:xlink="http://www.w3.org/1999/xlink" x="0px" y="0px"
	 viewBox="0 0 111 68.5" style="enable-background:new 0 0 111 68.5;" xml:space="preserve">
<style type="text/css">
	.st0{fill:#3FA9F5;}
</style>
<path class="st0" d="M108.5,15.1l-52.2-15C56.2,0,56,0,55.8,0h-0.7c-0.2,0-0.4,0-0.6,0.1l-52.2,15C0.9,15.5,0,16.8,0,18.2
	c0,1.4,0.9,2.6,2.3,3.1l20.6,5.9c-1.8,3.6-2.9,7.3-3.4,11.2c-0.5,3.5,1.4,6.9,4.7,8.3c0.1,0,0.1,0,0.2,0.1c0.1,0,0.1,0.1,0.2,0.1
	c0.2,0.8,0.6,1.5,1.1,2.1l-3.4,17c-0.1,0.6,0,1.3,0.4,1.8s1,0.8,1.7,0.8h14.5c0.6,0,1.3-0.3,1.7-0.8s0.6-1.2,0.4-1.8l-2.8-13.8
	c6.1,2.1,11.2,3.5,15.4,4.3c0.5,0.1,1.1,0.2,1.6,0.2s1-0.1,1.4-0.2c9.3-1.7,19.3-5,29.8-9.8c3-1.4,4.9-4.7,4.7-8.2
	c-0.4-3.9-1.6-7.6-3.3-11.1l20.7-5.9c1.5-0.4,2.5-1.7,2.5-3.2S110,15.5,108.5,15.1z M23.8,38.9c0.4-3.6,1.5-7.1,3.2-10.4l2.5,0.7
	v8.6c-2.1,0.7-3.8,2.2-4.6,4.3C24.1,41.2,23.7,40.1,23.8,38.9z M27.1,64.2l3.1-15.5c0.2-0.8-0.1-1.6-0.7-2.1c-0.5-0.4-0.8-1.1-0.8-2
	c0-1.7,1.4-3,3-3c1.7,0,3,1.4,3,3c0,0.8-0.3,1.6-0.8,2c-0.6,0.5-0.9,1.3-0.7,2.1l3.1,15.5H27.1z M86.9,38.8c0.1,1.7-0.8,3.3-2.2,3.9
	c-10.1,4.6-19.8,7.8-28.9,9.5c-0.3,0.1-0.7,0.1-1.2,0c-4.5-0.8-9.8-2.3-16.2-4.6c0.4-0.9,0.6-1.9,0.6-3c0-3.3-2.2-6-5.2-7v-7.3
	l20.5,5.9c0.2,0.1,0.4,0.1,0.6,0.1h0.3h0.3H56c0.2,0,0.4,0,0.6-0.1l27-7.7C85.4,31.7,86.5,35.2,86.9,38.8z M84.7,23.8
	c-0.2,0-0.5,0-0.7,0.1L55.4,32l-17.9-5.1l12.7-4.8c1.3,1,3.1,1.7,5.2,1.7c4,0,7.1-2.4,7.1-5.4S59.4,13,55.4,13c-3.9,0-7,2.3-7.1,5.3
	l-17.4,6.6c-0.1,0-0.2,0.1-0.2,0.1L7.1,18.2L55.4,4.3L104,18.2L84.7,23.8z M52.6,18.3c0-0.2,0.9-1.1,2.8-1.1c1.9,0,2.8,0.9,2.8,1.1
	s-0.9,1.1-2.8,1.1C53.5,19.5,52.6,18.5,52.6,18.3z"/>
</svg>
