<?xml version="1.0" encoding="utf-8"?>
<!-- Generator: Adobe Illustrator 23.0.0, SVG Export Plug-In . SVG Version: 6.00 Build 0)  -->
<svg version="1.1" id="Layer_1" xmlns="http://www.w3.org/2000/svg" xmlns:xlink="http://www.w3.org/1999/xlink" x="0px" y="0px"
	 viewBox="0 0 194 133.98" style="enable-background:new 0 0 194 133.98;" xml:space="preserve">
<style type="text/css">
	.st0{fill:#3FA9F5;}
</style>
<g>
	<path class="st0" d="M191.61,111.8l-22.4-16.1V63.08V16.53V7.18c0-3.91-3.26-7.18-7.18-7.18h-9.14L99.61,0.22H39.14h-7.39
		c-3.92,0-7.18,3.26-7.18,7.18v7.18v80.91L2.39,111.8c-6.31,9.57,0.65,22.19,11.96,22.19h165.3
		C190.96,133.98,197.92,121.15,191.61,111.8 M101.13,4.13c0.44,0,0.87,0.22,0.87,0.87c0,0.22-0.22,0.44-0.43,0.44
		c-0.44,0-0.87-0.22-0.87-0.87C100.7,4.35,100.91,4.13,101.13,4.13 M94.61,4.13c0.22-0.87,0.87-1.74,1.96-1.96
		C98.3,1.96,99.61,3.26,99.39,5c-0.22,0.87-0.87,1.74-1.96,1.96C95.7,7.4,94.39,5.87,94.61,4.13 M34.58,63.73v-29.8V13.7
		c0-2.39,1.96-4.35,4.35-4.35h60.68h53.29c3.48,0,6.09,2.83,6.09,6.09v47.63v12.4V92h-20.66H54.8H34.79L34.58,63.73z M179.43,123.98
		H14.35c-3.48,0-5.66-3.92-3.7-6.74l21.53-15.01h129.2l21.53,15.01C185.09,120.06,182.91,123.98,179.43,123.98"/>
	<path class="st0" d="M156.81,106.79H37.19l-10.22,8.05c-1.3,1.09-0.65,3.04,1.09,3.04h138.11c1.52,0,2.39-1.96,1.09-3.04
		L156.81,106.79z"/>
	<path class="st0" d="M88.74,83.96c0.22,0,0.43,0.22,0.65,0.22c2.39,0.65,5,0.87,7.61,0.87s5.22-0.43,7.61-0.87
		c0.22,0,0.44,0,0.65-0.22c15.01-3.7,26.1-17.18,26.1-33.28c0-18.92-15.44-34.37-34.37-34.37S62.63,31.76,62.63,50.68
		C62.63,66.77,73.73,80.26,88.74,83.96 M69.38,53.94h7.83c0.65,8.27,3.04,15.44,5.22,20.45C75.47,70.04,70.46,62.64,69.38,53.94
		 M93.74,23.06v24.36H83.73c0.44-7.39,2.61-15.66,8.27-24.14C92.65,23.27,93.08,23.06,93.74,23.06 M100.48,23.06L100.48,23.06
		c0.22,0.22,9.57,8.92,10.44,24.36h-10.66L100.48,23.06C100.26,23.06,100.26,23.06,100.48,23.06 M100.26,78.08V53.94h10.66
		c-0.65,6.96-3.26,15.01-8.7,23.93C101.35,78.08,100.92,78.08,100.26,78.08 M93.74,53.94V78.3c-0.65,0-1.31-0.22-1.96-0.22
		c-1.74-3.04-6.96-12.18-8.05-23.93h10.01V53.94z M111.57,74.17c3.48-7.4,5.44-14.14,5.87-20.23h7.18
		C123.53,62.42,118.53,69.82,111.57,74.17 M124.41,47.42h-6.96c-0.44-8.48-3.26-15.44-6.09-20.45
		C118.53,31.32,123.53,38.72,124.41,47.42 M82.43,26.97c-3.48,6.96-4.79,13.92-5.22,20.23h-7.83
		C70.46,38.72,75.25,31.32,82.43,26.97"/>
</g>
</svg>
