<?xml version="1.0" encoding="utf-8"?>
<!-- Generator: Adobe Illustrator 23.0.0, SVG Export Plug-In . SVG Version: 6.00 Build 0)  -->
<svg version="1.1" id="Layer_1" xmlns="http://www.w3.org/2000/svg" xmlns:xlink="http://www.w3.org/1999/xlink" x="0px" y="0px"
	 viewBox="0 0 213.66 207.86" style="enable-background:new 0 0 213.66 207.86;" xml:space="preserve">
<style type="text/css">
	.st0{fill:#3FA9F5;}
</style>
<g>
	<path class="st0" d="M206.7,53.24h-58.21v-7.81c0-3.83-3.12-6.95-6.96-6.95h-9.61V23.39c0-12.9-10.49-23.39-23.39-23.39h-3.42
		c-12.9,0-23.39,10.49-23.39,23.39v15.09h-9.61c-3.83,0-6.95,3.12-6.95,6.95v7.81H6.95C3.12,53.24,0,56.35,0,60.19v140.73
		c0,3.83,3.12,6.95,6.95,6.95H206.7c3.84,0,6.95-3.12,6.95-6.95V60.18C213.66,56.35,210.54,53.24,206.7,53.24 M95.63,23.39
		c0-5.23,4.25-9.49,9.49-9.49h3.42c5.23,0,9.49,4.25,9.49,9.49v15.09h-22.4V23.39z M79.06,52.38h55.52v11.39H79.06V52.38z
		 M35.31,193.96c1.28-13.56,12.72-24.22,26.62-24.22c13.89,0,25.34,10.66,26.61,24.22H35.31z M45.14,140.36
		c0-9.25,7.53-16.78,16.79-16.78s16.78,7.53,16.78,16.78c0,9.25-7.52,16.79-16.78,16.79S45.14,149.61,45.14,140.36 M199.75,193.96
		H100.5c-0.89-13.62-8.81-25.35-20.21-31.52c6.33-5.27,10.37-13.21,10.37-22.08c0-15.85-12.88-28.73-28.73-28.73
		c-15.85,0-28.74,12.89-28.74,28.73c0,8.86,4.05,16.8,10.37,22.08c-11.39,6.17-19.31,17.9-20.2,31.52H13.9V99.77h185.85V193.96z
		 M199.75,85.86H13.9V67.13h51.26v3.59c0,3.83,3.12,6.95,6.95,6.95h69.42c3.84,0,6.96-3.12,6.96-6.95v-3.59h51.26L199.75,85.86
		L199.75,85.86z"/>
	<path class="st0" d="M106.82,17.39c-4.7,0-8.52,3.82-8.52,8.52c0,4.7,3.82,8.52,8.52,8.52c4.71,0,8.53-3.82,8.53-8.52
		C115.35,21.21,111.53,17.39,106.82,17.39"/>
	<path class="st0" d="M106.82,145h70c3.83,0,6.95-3.11,6.95-6.95c0-3.83-3.11-6.95-6.95-6.95h-70c-3.83,0-6.95,3.12-6.95,6.95
		C99.88,141.88,102.99,145,106.82,145"/>
	<path class="st0" d="M106.82,165.9h70c3.83,0,6.95-3.12,6.95-6.95c0-3.83-3.11-6.95-6.95-6.95h-70c-3.83,0-6.95,3.11-6.95,6.95
		C99.87,162.78,102.99,165.9,106.82,165.9"/>
</g>
</svg>
