<?xml version="1.0" encoding="utf-8"?>
<!-- Generator: Adobe Illustrator 23.0.0, SVG Export Plug-In . SVG Version: 6.00 Build 0)  -->
<svg version="1.1" id="Layer_1" xmlns="http://www.w3.org/2000/svg" xmlns:xlink="http://www.w3.org/1999/xlink" x="0px" y="0px"
	 viewBox="0 0 257 257" style="enable-background:new 0 0 257 257;" xml:space="preserve">
<style type="text/css">
	.st0{fill:#3FA9F5;}
</style>
<path class="st0" d="M247.82,236.15v-52.58c2.72,0,5.41-1.2,7.22-3.5c3.14-3.99,2.44-9.76-1.54-12.89l-60.74-47.73V73.43H209
	c10.64,0,15.35-11.32,7.03-16.94l-80.5-54.4C133.48,0.69,130.99,0,128.5,0c-2.49,0-4.98,0.69-7.03,2.08l-80.5,54.4
	C32.65,62.1,37.35,73.43,48,73.43h16.25v56.91l-36.71,44.06h-9.18C8.22,174.39,0,182.61,0,192.75v45.89C0,248.78,8.22,257,18.36,257
	h18.36l27.54-33.04v23.86c0,5.07,4.11,9.18,9.18,9.18c5.07,0,9.18-4.11,9.18-9.18v-36.71h91.79v36.71c0,5.07,4.11,9.18,9.18,9.18
	c5.07,0,9.18-4.11,9.18-9.18v-31.6l49.4,38.81c1.68,1.32,3.68,1.96,5.66,1.96c2.73,0,5.42-1.2,7.22-3.51
	c3.14-3.99,2.44-9.76-1.54-12.89L247.82,236.15z M229.46,221.72l-9.18-7.21v-50.08l9.18,7.21V221.72z M201.93,150.01v50.08
	l-9.18-7.21V142.8L201.93,150.01z M128.5,19.49l52.65,35.58H75.85L128.5,19.49z M82.61,73.43h91.79v27.53H82.61V73.43z
	 M28.12,238.64h-9.76v-45.89h9.18c5.45,0,10.61-2.42,14.1-6.61l22.61-27.13v36.27L28.12,238.64z M82.61,119.32h91.79v73.43H82.61
	V119.32z"/>
</svg>
