<?xml version="1.0" encoding="utf-8"?>
<!-- Generator: Adobe Illustrator 22.1.0, SVG Export Plug-In . SVG Version: 6.00 Build 0)  -->
<svg version="1.1" id="Layer_1" xmlns="http://www.w3.org/2000/svg" xmlns:xlink="http://www.w3.org/1999/xlink" x="0px" y="0px"
	 viewBox="0 0 96 72" style="enable-background:new 0 0 96 72;" xml:space="preserve">
<style type="text/css">
	.st0{fill:#FFFFFF;}
</style>
<g>
	<g>
		<path class="st0" d="M75,72c-5.7,0-11.1-2.3-15-6.5c-4.1-4.2-6.2-10.3-6.2-18.1c0-9.5,2.7-18.7,7.7-26.7
			C66.3,12.7,73.1,5.8,81,0.9L82.4,0L96,8.7L93.6,11c-3.3,3.1-6.2,6.6-8.6,10.5l-0.1,0.1c-2.2,3.2-3.8,6.7-4.7,10.5
			c3.8,0.8,7.3,2.7,10.1,5.5c3.7,3.5,5.7,8.5,5.6,13.5c0.1,5.6-2.1,11.1-6.1,15c-3.8,3.8-9,6-14.4,5.9C75.3,72,75.1,72,75,72z
			 M82.4,6.1C75.7,10.6,70.1,16.5,66,23.4l0,0.1c-4.5,7.2-6.9,15.5-7,24c0,6.3,1.6,11.2,4.7,14.5c3,3.2,7.3,5,11.7,4.9l0,0l0,0
			c0.1,0,0.1,0,0.2,0c3.9,0,7.8-1.6,10.5-4.4l0,0c3-2.9,4.7-7,4.5-11.2l0-0.1l0-0.1c0.1-3.7-1.4-7.2-4-9.8l0,0
			c-2.6-2.6-6-4.2-9.7-4.4l-2.8-0.2l0.4-2.8c0.9-5.4,3-10.6,6.1-15.1c2.1-3.3,4.4-6.3,7.1-9.1L82.4,6.1z M21.2,72
			c-5.7,0-11.1-2.3-15-6.5C2.1,61.3,0,55.2,0,47.5C0,38,2.7,28.8,7.7,20.8c4.8-8.1,11.5-14.9,19.5-19.9L28.6,0l13.6,8.7L39.8,11
			c-3.3,3.1-6.2,6.6-8.6,10.5l-0.1,0.1c-2.2,3.2-3.8,6.7-4.7,10.5c3.8,0.8,7.3,2.7,10.1,5.5c3.6,3.5,5.7,8.5,5.6,13.5
			c0.1,5.6-2.1,11.1-6.1,15c-3.8,3.8-9,6-14.3,5.9C21.5,72,21.3,72,21.2,72z M28.6,6.1c-6.7,4.5-12.3,10.4-16.4,17.3l0,0.1
			c-4.5,7.2-6.9,15.5-7,24c0,6.3,1.6,11.2,4.7,14.5c3,3.2,7.3,5,11.6,4.9l0,0l0,0c4,0,7.9-1.6,10.7-4.4l0,0c3-2.9,4.7-7,4.5-11.2
			l0-0.1l0-0.1c0.1-3.7-1.4-7.2-4-9.8l0,0c-2.6-2.6-6-4.2-9.7-4.4l-2.8-0.2l0.4-2.8c0.9-5.4,3-10.6,6.1-15.1
			c2.1-3.3,4.5-6.3,7.1-9.1L28.6,6.1z"/>
	</g>
</g>
</svg>
