<?xml version="1.0" encoding="utf-8"?>
<!-- Generator: Adobe Illustrator 22.1.0, SVG Export Plug-In . SVG Version: 6.00 Build 0)  -->
<svg version="1.1" id="Layer_1" xmlns="http://www.w3.org/2000/svg" xmlns:xlink="http://www.w3.org/1999/xlink" x="0px" y="0px"
	 viewBox="0 0 97.5 73.4" style="enable-background:new 0 0 97.5 73.4;" xml:space="preserve">
<style type="text/css">
	.st0{fill:#8DC641;}
</style>
<g>
	<g>
		<path class="st0" d="M68.2,73.4l-15.3-9.9l3.5-3.3c3.2-3,6-6.4,8.3-10l0.1-0.1c1.8-2.6,3.2-5.6,4.1-8.6c-3.5-1-6.7-2.8-9.2-5.4
			c-3.8-3.7-5.9-8.9-5.8-14.2c-0.1-5.8,2.2-11.5,6.3-15.6C64,2.3,69.4,0,74.9,0C75,0,75,0,75,0C81.1-0.1,87,2.3,91.1,6.8
			c4.2,4.4,6.4,10.7,6.4,18.6c0,9.5-2.7,18.8-7.8,26.8c-4.8,8.1-11.6,15-19.5,19.9L68.2,73.4z M64.9,62.3l3.2,2.1
			c6.1-4.2,11.3-9.7,15.1-16.1l0-0.1c4.3-6.9,6.6-14.8,6.6-22.9c0-5.9-1.4-10.4-4.3-13.3c-2.7-2.9-6.5-4.5-10.5-4.4l-0.1,0l-0.1,0
			c-3.6,0-7,1.4-9.5,4l-0.1,0.1c-2.7,2.6-4.2,6.3-4.1,10.1l0,0.1l0,0.1c-0.1,3.2,1.2,6.4,3.5,8.6l0.1,0.1c2.3,2.3,5.4,3.8,8.7,4
			l4.1,0.3L77.2,39c-0.9,5.5-3,10.8-6.1,15.3C69.2,57.1,67.2,59.8,64.9,62.3z M15.4,73.4L0,63.6l3.6-3.3c3.2-3,6-6.4,8.3-10l0.1-0.1
			c1.8-2.6,3.2-5.6,4.1-8.6c-3.5-1-6.6-2.8-9.2-5.4c-3.8-3.7-6-8.9-5.9-14.2C0.8,16,3.1,10.3,7.3,6.2c3.9-4,9.4-6.2,15-6.2
			c6.1-0.1,11.9,2.3,16.1,6.7c4.3,4.4,6.4,10.7,6.4,18.6c0,9.5-2.7,18.8-7.8,26.8c-4.8,8.1-11.6,15-19.5,19.9L15.4,73.4z M12.1,62.3
			l3.2,2.1c6.1-4.2,11.3-9.7,15.1-16.1l0-0.1c4.3-6.9,6.6-14.8,6.6-22.9c0-5.9-1.4-10.4-4.3-13.3l0,0c-2.7-2.9-6.5-4.5-10.5-4.4
			l-0.1,0l-0.1,0c-3.6,0-7.1,1.4-9.6,4l-0.1,0.1c-2.7,2.6-4.2,6.3-4.1,10.1l0,0.1l0,0.1c-0.1,3.2,1.2,6.4,3.6,8.6l0.1,0.1
			c2.3,2.3,5.4,3.8,8.7,4l4.1,0.3L24.4,39c-0.9,5.5-3,10.8-6.1,15.3C16.4,57.1,14.4,59.8,12.1,62.3z"/>
	</g>
</g>
</svg>
