<?xml version="1.0" encoding="utf-8"?>
<!-- Generator: Adobe Illustrator 22.1.0, SVG Export Plug-In . SVG Version: 6.00 Build 0)  -->
<svg version="1.1" id="Layer_1" xmlns="http://www.w3.org/2000/svg" xmlns:xlink="http://www.w3.org/1999/xlink" x="0px" y="0px"
	 viewBox="0 0 111.7 99.3" style="enable-background:new 0 0 111.7 99.3;" xml:space="preserve">
<style type="text/css">
	.st0{fill:#F15B27;}
</style>
<g transform="translate(0,-952.36218)">
	<path class="st0" d="M55.5,952.4c-1.6,0.2-2.8,1.5-2.8,3.2v9.3c0,1.7,1.3,3.1,3.1,3.1c1.7,0,3.1-1.3,3.1-3.1c0,0,0-0.1,0-0.1v-9.3
		c0-1.7-1.3-3.1-3-3.2C55.8,952.4,55.6,952.4,55.5,952.4z M32.3,957c-1.7,0.1-3,1.6-2.9,3.3c0,0.4,0.1,0.8,0.3,1.2l3.1,6.2
		c0.6,1.6,2.4,2.4,4,1.8c1.6-0.6,2.4-2.4,1.8-4c-0.1-0.2-0.2-0.4-0.3-0.5l-3.1-6.2C34.8,957.6,33.6,956.9,32.3,957z M78.9,957
		c-1.1,0.1-2.1,0.7-2.6,1.7l-3.1,6.2c-0.9,1.5-0.5,3.4,1,4.3c1.5,0.9,3.4,0.5,4.3-1c0.1-0.2,0.2-0.3,0.3-0.5l3.1-6.2
		c0.8-1.5,0.2-3.4-1.4-4.2C80,957.1,79.5,957,78.9,957z M20,977.2c-0.9,0.1-1.7,0.5-2.3,1.3l-17.1,23.3c-0.9,1.3-0.7,3.1,0.5,4.2
		l15.6,13.1c-2.6,1.7-4.3,4.6-4.3,7.8c0,5.1,4.2,9.3,9.3,9.3c0.7,0,1.4-0.1,2.1-0.3c1.1,2.9,3.9,4.9,7.2,4.9c0,0,0.1,0,0.1,0
		c0.7,3.5,3.9,6.2,7.6,6.2c0.7,0,1.4-0.1,2.1-0.3c1.1,2.9,3.9,5,7.2,5c1.6,0,3-0.5,4.2-1.3c1.6,0.9,3.3,1.3,5.1,1.3
		c2.6,0,4.7-1.2,6.4-2.9c1-1,1.9-2.2,2.4-3.6c0.7,0.2,1.3,0.3,2,0.3c3.4,0,6.3-2,7.7-4.8c0.5,0.1,1.1,0.2,1.6,0.2
		c3.5,0,6.5-2.2,7.8-5.2c1.2,0.5,2.3,0.6,3.5,0.6c2.2,0,4.5-0.7,6.2-2.3c1.7-1.6,2.7-4,2.7-6.7c0,0,0,0,0,0
		c-0.1-3.2-1.9-5.5-4.2-7.2l17-13.9c1.3-1,1.5-2.9,0.6-4.2L94,978.5c-0.7-1-1.8-1.4-3-1.3c-0.2,0-0.4,0.1-0.5,0.1
		c-9.2,3.2-14.4,3-25.3,3c-3.4,0-6.5,0.9-9.3,2.6c-2.8-1.7-5.9-2.6-9.3-2.6c-10.9,0-16.1,0.2-25.3-3C20.8,977.3,20.4,977.2,20,977.2
		z M21.4,983.9c8.8,2.7,15.2,2.7,25.1,2.7c1.7,0,3.1,0.3,4.4,0.8L39.5,1000c-0.7,0.8-1,2-0.6,3.1c1,3.1,3.3,5.1,5.5,6
		c2.2,0.9,4.2,0.9,5.5,0.7c1.9-0.2,3-0.9,4.5-1.7c1.5-0.8,3-1.8,4.4-2.8c1.7-1.2,2.3-1.7,3.2-2.4l27.6,21.8c0,0,0.1,0.1,0.1,0.1
		c1,0.7,1.8,2.3,1.8,2.5c0,1.2-0.3,1.7-0.7,2.1c-0.4,0.4-1,0.7-1.9,0.7c-0.4,0-1.6-0.4-1.5-0.3c0.4,0.3-0.3-0.2-0.9-0.7
		c-0.6-0.5-1.4-1.2-2.4-1.9c-2-1.5-4.5-3.5-7-5.5c-5-4-9.9-7.9-9.9-7.9c-1.3-1.1-3.3-0.9-4.4,0.5c-1.1,1.3-0.9,3.3,0.5,4.4
		c0,0,4.9,3.9,9.9,7.9c2.4,1.9,4.8,3.8,6.8,5.4c0,0.1,0,0.3,0,0.4c0,1.4-1.1,2.5-2.3,2.5c-0.5,0-0.9-0.2-1.3-0.4
		c0.3,0.2-0.2-0.1-0.6-0.5c-0.4-0.3-1-0.8-1.6-1.4c-1.3-1.1-3.1-2.5-4.8-3.9c-3.4-2.8-6.7-5.6-6.7-5.6c-0.6-0.5-1.5-0.8-2.3-0.7
		c-1.7,0.2-3,1.7-2.8,3.4c0.1,0.9,0.5,1.6,1.2,2.2c0,0,3.4,2.8,6.8,5.6c1.7,1.4,3.5,2.8,4.8,3.9c0.2,0.1,0.2,0.2,0.4,0.3
		c-0.3,1.1-1.2,1.8-2.2,1.8c-0.5,0-0.9-0.2-1.3-0.4c0,0-6.9-5-10.7-8.2c-0.6-0.5-1.5-0.8-2.3-0.7c-1.7,0.2-3,1.7-2.8,3.4
		c0.1,0.9,0.5,1.6,1.2,2.2c2.7,2.2,5.8,4.6,8.2,6.3v0.6c0,0.5-0.4,1.3-1.1,2c-0.7,0.7-1.6,1.1-2,1.1c-1,0-1.3,0-1.7-0.2
		c0.1-0.4,0.1-0.9,0.1-1.4c0-4.2-3.5-7.8-7.8-7.8c-0.7,0-1.4,0.1-2.1,0.3c-1.1-2.9-3.9-5-7.2-5c0,0-0.1,0-0.1,0
		c-0.7-3.5-3.9-6.2-7.6-6.2c0,0-0.1,0-0.1,0c-0.5-3.2-2.7-5.8-5.6-7l-17.9-15.2L21.4,983.9z M90.2,983.9l14.1,19.2l-15.8,12.8
		L64,996.5c-1.1-0.9-2.8-0.9-3.9,0c0,0-2.2,1.8-4.8,3.6c-1.3,0.9-2.7,1.8-3.9,2.5c-1.2,0.7-2.3,1-2,1c-0.8,0.1-1.8,0-2.6-0.3
		c-0.4-0.2-0.8-0.4-1.1-0.8l11.6-12.8c0.7-0.2,1.3-0.7,1.7-1.4c2-1.2,3.7-1.7,6.3-1.7C75.1,986.6,81.5,986.5,90.2,983.9z
		 M21.7,1023.8c1.7,0,3.1,1.4,3.1,3.1c0,1.8-1.4,3.1-3.1,3.1s-3.1-1.4-3.1-3.1C18.6,1025.1,20,1023.8,21.7,1023.8z M31,1031.5
		c0.9,0,1.6,0.7,1.6,1.6s-0.7,1.6-1.6,1.6c-0.9,0-1.6-0.7-1.6-1.6S30.1,1031.5,31,1031.5z M38.8,1037.7c0.9,0,1.6,0.7,1.6,1.6
		s-0.7,1.6-1.6,1.6c-0.9,0-1.6-0.7-1.6-1.6S37.9,1037.7,38.8,1037.7z M48.1,1042.4c0.9,0,1.6,0.7,1.6,1.6c0,0.9-0.7,1.6-1.6,1.6
		c-0.9,0-1.6-0.7-1.6-1.6C46.5,1043,47.2,1042.4,48.1,1042.4z"/>
</g>
</svg>
