<?xml version="1.0" encoding="utf-8"?>
<!-- Generator: Adobe Illustrator 23.0.0, SVG Export Plug-In . SVG Version: 6.00 Build 0)  -->
<svg version="1.1" id="Layer_1" xmlns="http://www.w3.org/2000/svg" xmlns:xlink="http://www.w3.org/1999/xlink" x="0px" y="0px"
	 viewBox="0 0 284.3 226" style="enable-background:new 0 0 284.3 226;" xml:space="preserve">
<path d="M141.9,0c-1.9,0-4.1,0.9-5.6,2.2L4.4,105.8c-4.4,2.8-5.6,8.5-3.1,12.9c2.5,4.4,8.5,5.7,12.9,3.1c0.6-0.3,1.3-0.9,1.6-1.3
	l19.5-15.1v111.1c0,5.3,4.1,9.4,9.4,9.4h62.2c5.3,0,9.4-4.1,9.4-9.4v-44.3c0-14.4,11.3-26.1,26.1-26.1s26.1,11.3,26.1,26.1v44.3
	c0,5.3,4.1,9.4,9.4,9.4h61.8c5.3,0,9.4-4.1,9.4-9.4V105.2l19.5,15.1c3.8,3.8,9.7,3.5,13.2,0c3.8-3.8,3.5-9.7,0-13.2
	c-0.6-0.6-0.9-0.9-1.6-1.3l-30.8-24.2V15.7c0-5.3-4.1-9.4-9.4-9.4h-43.9c-0.3,0-0.6,0-0.9,0c-4.7,0.6-8.5,4.7-8.5,9.4V32L147.9,2.2
	C146.3,0.6,144.1,0,141.9,0z M142.2,21.3l87.9,69.1v116.8h-43.3v-34.8c0-24.8-20.1-44.9-44.9-44.9s-44.6,20.4-44.6,44.9v34.8h-43
	V90.4L142.2,21.3z M205,25.1h25.1v41.4L205,46.8V25.1z"/>
</svg>
