<?xml version="1.0" encoding="utf-8"?>
<!-- Generator: Adobe Illustrator 22.1.0, SVG Export Plug-In . SVG Version: 6.00 Build 0)  -->
<svg version="1.1" id="Layer_1" xmlns="http://www.w3.org/2000/svg" xmlns:xlink="http://www.w3.org/1999/xlink" x="0px" y="0px"
	 viewBox="0 0 74.4 88.5" style="enable-background:new 0 0 74.4 88.5;" xml:space="preserve">
<style type="text/css">
	.st0{fill:#010101;}
</style>
<path class="st0" d="M40.8,0C25.6,0,11.5,11.4,8.6,24.1c-0.7,2.8-1.4,10.1-1.4,10.1l-7,17.7C0.1,52.2,0,52.5,0,52.9
	c0,1.5,1.2,2.7,2.7,2.7h4.5V65c0,7.3,5.9,13.3,13.2,13.3h5.3v10.3h35.8V60c7.8-6.2,12.8-15.7,12.8-26.4C74.4,15,59.4,0,40.8,0z
	 M15.5,40.9c-2.1,0-3.7-1.7-3.7-3.8c0-2.1,1.7-3.7,3.7-3.7c2.1,0,3.8,1.7,3.8,3.7C19.2,39.2,17.5,40.9,15.5,40.9z M65.1,35.8
	l-3.5,3.5l-4.3-3c-0.8,0.4-1.7,0.8-2.6,1l-0.8,4.6h1.6l0.4,2.5c0.2,0,0.3,0.1,0.5,0.1c0.4,0.2,0.8,0.4,1.2,0.6l2-1.4l1.6,1.6
	l-1.4,2.1c0.3,0.6,0.6,1.1,0.7,1.8l2.4,0.4v2.3l-2.5,0.4c0,0.2-0.1,0.3-0.1,0.5c-0.2,0.4-0.4,0.8-0.6,1.2l1.4,2l-1.6,1.6l-2-1.5
	c-0.6,0.3-1.1,0.6-1.8,0.7l-0.4,2.4H53l-0.4-2.5c-0.2,0-0.4-0.1-0.5-0.1c-0.4-0.2-0.8-0.4-1.2-0.6l-2,1.4l-1.6-1.6l1.5-2
	c-0.3-0.6-0.6-1.1-0.7-1.8l-2.4-0.4v-2.3l2.5-0.4c0-0.2,0.1-0.3,0.1-0.5c0.2-0.4,0.4-0.8,0.6-1.2l-1.4-2l1.6-1.6l2.1,1.5
	c0.5-0.3,1.1-0.6,1.8-0.7l0.4-2.1h-4.3L48,37.1c-0.2-0.1-0.4-0.1-0.6-0.2c-0.7-0.3-1.3-0.6-1.9-0.9l-4.1,2.9l-3.5-3.5l3-4.2
	c-0.4-0.8-0.8-1.7-1-2.6L35,27.7v-4.1l-2.5,0.4c0,0.1,0,0.2-0.1,0.4c-0.2,0.4-0.4,0.8-0.6,1.2l1.9,2.7l-2.3,2.3l-2.8-2
	c-0.5,0.3-1.1,0.5-1.6,0.6l-0.6,3.2l-3.2,0l-0.6-3.4c-0.1,0-0.2,0-0.3-0.1c-0.4-0.2-0.9-0.4-1.2-0.6l-2.7,1.9L16,28.1l2-2.8
	c-0.3-0.5-0.5-1.1-0.6-1.6l-3.3-0.6v-3.2l3.4-0.6c0-0.1,0.1-0.2,0.1-0.4c0.2-0.4,0.4-0.9,0.6-1.2L16.2,15l2.3-2.3l2.8,2
	c0.5-0.3,1.1-0.5,1.6-0.6l0.6-3.2h3.2l0.6,3.4c0.1,0,0.2,0,0.3,0.1c0.4,0.2,0.9,0.4,1.2,0.6l2.7-1.9l2.3,2.3l-2,2.8
	c0.3,0.5,0.5,1.1,0.6,1.6l3.2,0.6v2.4l4.2-0.7c0.1-0.2,0.1-0.4,0.2-0.6c0.3-0.7,0.6-1.3,0.9-2l-2.9-4.1l3.5-3.5l4.3,3
	c0.8-0.4,1.7-0.8,2.6-1l0.8-4.9h4.9l0.9,5.1c0.2,0.1,0.4,0.1,0.6,0.2c0.7,0.3,1.3,0.6,1.9,0.9l4.1-2.9l3.5,3.5l-3,4.3
	c0.4,0.8,0.8,1.7,1,2.6l5,0.9v4.9l-5.1,0.9c-0.1,0.2-0.1,0.4-0.2,0.6c-0.3,0.7-0.6,1.3-0.9,2L65.1,35.8z"/>
</svg>
