<?xml version="1.0" encoding="utf-8"?>
<!-- Generator: Adobe Illustrator 22.1.0, SVG Export Plug-In . SVG Version: 6.00 Build 0)  -->
<svg version="1.1" id="Layer_1" xmlns="http://www.w3.org/2000/svg" xmlns:xlink="http://www.w3.org/1999/xlink" x="0px" y="0px"
	 viewBox="0 0 96.9 61.6" style="enable-background:new 0 0 96.9 61.6;" xml:space="preserve">
<style type="text/css">
	.st0{fill:#010101;}
</style>
<path class="st0" d="M91.7,19.1v37.3c-6.6,0-21.4-0.1-24.5-0.2c-8.7-0.5-16.6-1.7-22.6-3.5c-5.3-1.6-11.7-2.7-18.9-3.4v-2.4
	c7.3,0.5,14,1.7,19.5,3.2c6.5,1.9,14.8,3.1,23.8,3.7c2.9,0.2,10.2,0.2,15.2,0.2c1.6,0,2.9,0,3.9,0h2.6V11.5h-5.2v37.3
	c-4.9,0-13-0.1-16-0.2c-8.7-0.5-16.6-1.7-22.6-3.5c-8.2-2.4-18.8-3.8-30.2-3.9v-1.5c11,0.1,21.3,1.5,29,3.7
	c5.9,1.7,13.2,2.9,21.3,3.5l0,0l2.5,0.1l2.7,0.1V47c2.1,0.1,4.2,0.2,6.3,0.2c0.9,0,1.9,0,2.7,0h2.6V35.9v-5.2v-6.2v-5.2V7.5H81
	c-3.7,0.1-7.4,0-11.3-0.2C61.1,6.9,53.2,5.7,47,3.9C38.8,1.5,28,0.1,16.6,0l0,0h-2.4h-2.9v0.1C8.3,0.2,5.3,0.3,2.5,0.5L0,0.7l0.3,12
	l0,0L0.6,28l0,0l0.2,12.4l2.7-0.2c2.4-0.2,5-0.3,7.5-0.3v6.7h2.6c0.1,0,0.1,0,0.2,0c2.2,0,4.3,0.1,6.4,0.1v7.5l2.4,0.2
	c7.6,0.5,14.7,1.7,20.2,3.4c6.5,1.9,14.8,3.1,23.8,3.7c3,0.2,15.6,0.2,22.9,0.2c2.1,0,3.8,0,4.6,0h2.6V19.1H91.7z M53.3,10.8
	c4.2,0.8,8.8,1.4,13.7,1.8c0,0.1,0.1,0.2,0.1,0.3c0,0.3,0.1,0.5,0.2,0.7c0.1,0.6,0.3,1.2,0.5,1.7c0.1,0.3,0.2,0.5,0.3,0.7
	c0.2,0.5,0.5,1.2,0.8,1.7c0.1,0.2,0.2,0.4,0.3,0.5c0.5,0.7,1,1.4,1.6,1.9c0.1,0.1,0.2,0.2,0.3,0.3c0.5,0.4,1,0.9,1.6,1.3
	c0.2,0.1,0.4,0.3,0.6,0.4c0.5,0.3,1,0.6,1.6,0.8c0.2,0.1,0.5,0.2,0.7,0.3c0.6,0.2,1.3,0.4,1.9,0.6c0.2,0,0.3,0.1,0.5,0.1h0.1v6.7
	h-0.1c-0.1,0-0.2,0.1-0.4,0.1c-0.7,0.2-1.4,0.3-2,0.6c-0.2,0.1-0.5,0.2-0.7,0.3c-0.5,0.2-1,0.5-1.6,0.8c-0.2,0.1-0.4,0.2-0.6,0.4
	c-0.6,0.4-1.3,0.9-1.9,1.6l-0.1,0.1c-0.5,0.5-1,1.2-1.5,1.7c-0.1,0.2-0.3,0.4-0.4,0.6c-0.3,0.5-0.6,1-0.8,1.6
	c-0.1,0.2-0.2,0.4-0.3,0.7c-0.3,0.7-0.5,1.5-0.7,2.2c0,0.1,0,0.1-0.1,0.2l0,0c-6.9-0.4-13.3-1.5-18.6-2.9c4.6-2.5,7.9-8.9,7.9-16.7
	C56.1,17.8,55.1,13.8,53.3,10.8z M45.5,24.5c-0.4-0.2-0.8-0.4-1.5-0.6c-0.5-0.2-1.2-0.3-1.9-0.5c-0.6-0.2-1.3-0.4-1.9-0.7
	c-0.5-0.3-1-0.7-1.5-1.3s-0.5-1.3-0.5-2.1c0-1.2,0.4-2.1,1.2-2.7c0.7-0.7,1.8-1.2,3-1.4v-3h2.5v2.9c0.8,0.1,1.7,0.2,2.4,0.5
	c0.7,0.3,1.5,0.6,2.1,1l-1.3,2.6c-0.4-0.2-0.8-0.4-1.2-0.6c-0.4-0.2-0.8-0.3-1.2-0.5c-0.4-0.1-0.7-0.2-1.2-0.3
	c-0.3-0.1-0.7-0.1-0.9-0.1c-0.5,0-1,0.1-1.4,0.3c-0.3,0.2-0.5,0.5-0.5,0.9s0.2,0.8,0.5,1c0.4,0.2,0.8,0.4,1.5,0.6
	c0.5,0.2,1.2,0.4,1.9,0.5c0.6,0.2,1.3,0.4,1.9,0.7c0.5,0.3,1,0.7,1.5,1.3c0.4,0.5,0.5,1.3,0.5,2.1c0,0.6-0.1,1.2-0.3,1.7
	s-0.5,0.9-0.9,1.3s-0.9,0.6-1.5,0.8c-0.5,0.2-1.2,0.4-1.9,0.4v3.1h-2.5v-3.1c-0.9-0.1-1.9-0.4-2.7-0.7c-0.8-0.4-1.7-0.8-2.3-1.5
	l1.3-2.7c0.4,0.3,0.7,0.6,1.3,0.9c0.4,0.3,0.8,0.5,1.4,0.7c0.4,0.2,0.9,0.3,1.4,0.4c0.4,0.1,0.8,0.1,1.3,0.1c0.6,0,1.3-0.1,1.6-0.3
	c0.4-0.2,0.5-0.6,0.5-1C46,25.1,45.8,24.8,45.5,24.5z M10.6,25.2c-0.5-0.3-0.9-0.6-1.5-0.8c-0.2-0.1-0.5-0.2-0.7-0.3
	c-0.6-0.2-1.2-0.4-1.8-0.6c-0.2,0-0.4-0.1-0.5-0.2c-0.1,0-0.1,0-0.2,0l-0.1-5.4h0.1c0.2,0,0.3-0.1,0.5-0.1c0.6-0.2,1.3-0.4,1.9-0.6
	c0.3-0.1,0.5-0.2,0.8-0.4c0.5-0.2,0.9-0.5,1.5-0.8c0.2-0.2,0.5-0.3,0.7-0.5c0.4-0.3,0.8-0.7,1.3-1c0.2-0.2,0.4-0.4,0.6-0.6
	c0.4-0.5,0.8-1,1.3-1.6c0.1-0.1,0.2-0.2,0.3-0.3c0.4-0.7,0.8-1.5,1.2-2.2C16,9.3,16,9.1,16.1,8.9c0.2-0.5,0.4-1.2,0.5-1.8
	c0.1-0.3,0.1-0.6,0.2-0.9c0-0.3,0.1-0.6,0.2-0.8c7.3,0.1,14.2,0.7,20.3,1.8c-3.5,3.1-5.7,8.6-5.7,15.1c0,5.8,1.8,10.7,4.6,13.9
	c-6-0.9-12.6-1.5-19.4-1.6c0-0.1,0-0.1,0-0.2c0-0.2-0.1-0.4-0.1-0.5c-0.1-0.6-0.3-1.3-0.5-1.8c-0.1-0.2-0.2-0.5-0.3-0.7
	c-0.2-0.5-0.5-1-0.8-1.6c-0.1-0.2-0.2-0.4-0.4-0.6c-0.4-0.6-0.9-1.3-1.5-1.9l0,0c-0.5-0.5-1.2-1-1.8-1.6
	C11,25.5,10.8,25.3,10.6,25.2z"/>
</svg>
