<?xml version="1.0" encoding="utf-8"?>
<!-- Generator: Adobe Illustrator 22.1.0, SVG Export Plug-In . SVG Version: 6.00 Build 0)  -->
<svg version="1.1" id="Layer_1" xmlns="http://www.w3.org/2000/svg" xmlns:xlink="http://www.w3.org/1999/xlink" x="0px" y="0px"
	 viewBox="0 0 106.5 70.4" style="enable-background:new 0 0 106.5 70.4;" xml:space="preserve">
<style type="text/css">
	.st0{fill:#010101;}
</style>
<path class="st0" d="M103.6,58.5L56.9,27.1c-0.1-0.1-0.3-0.1-0.4-0.2v-4.4c5.2-1.3,9.1-5.7,9.1-11C65.6,5.1,60.1,0,53.3,0
	S41,5.1,41,11.4c0,1.8,1.5,3.2,3.2,3.2c1.8,0,3.2-1.5,3.2-3.2c0-2.7,2.6-4.9,5.8-4.9c3.2,0,5.8,2.2,5.8,4.9s-2.6,4.9-5.8,4.9
	c-1.8,0-3.2,1.5-3.2,3.2v7.3c-0.1,0.1-0.3,0.1-0.4,0.2L2.9,58.5c-3,2-3.8,6-1.8,9c1.2,1.8,3.2,2.9,5.4,2.9c0,0,0,0,0,0H100
	c0,0,0,0,0,0c1.7,0,3.3-0.7,4.6-1.9c1.2-1.2,1.9-2.8,1.9-4.6C106.5,61.7,105.5,59.7,103.6,58.5z M6.5,63.8l46.8-31.4l0,0l0,0
	L100,63.9L6.5,63.8z"/>
</svg>
