<?xml version="1.0" encoding="utf-8"?>
<!-- Generator: Adobe Illustrator 22.1.0, SVG Export Plug-In . SVG Version: 6.00 Build 0)  -->
<svg version="1.1" id="Layer_1" xmlns="http://www.w3.org/2000/svg" xmlns:xlink="http://www.w3.org/1999/xlink" x="0px" y="0px"
	 viewBox="0 0 98.5 82" style="enable-background:new 0 0 98.5 82;" xml:space="preserve">
<style type="text/css">
	.st0{fill:#010101;}
	.st1{fill:#231F20;}
	.st2{fill:#FFFFFF;}
</style>
<g>
	<g>
		<g>
			<g>
				<path class="st0" d="M15.8,81.4c-0.5,0-0.9-0.1-1.4-0.3c-1.1-0.5-1.8-1.6-1.8-2.8v-7.2h-2.3c-5.3,0-9.7-4.3-9.7-9.6V30.8
					c0-5.3,4.3-9.6,9.7-9.6h46.2c5.3,0,9.7,4.3,9.7,9.6v30.7c0,5.3-4.3,9.6-9.7,9.6H29.2l-11.4,9.5C17.2,81.1,16.5,81.4,15.8,81.4z
					 M10.4,24.6c-3.5,0-6.4,2.8-6.4,6.2v30.7c0,3.4,2.8,6.2,6.4,6.2H16v9.9l12-9.9h28.5c3.5,0,6.4-2.8,6.4-6.2V30.8
					c0-3.4-2.8-6.2-6.4-6.2L10.4,24.6z"/>
				<path class="st1" d="M15.8,82c-0.6,0-1.1-0.1-1.6-0.3c0,0,0,0,0,0c-1.3-0.7-2.2-2-2.2-3.4v-6.5h-1.7C4.6,71.7,0,67.1,0,61.5
					V30.8c0-5.6,4.6-10.2,10.4-10.2h46.2c5.7,0,10.4,4.6,10.4,10.2v30.7c0,5.6-4.6,10.2-10.4,10.2H29.5l-11.2,9.4
					C17.4,81.7,16.6,82,15.8,82z M14.7,80.5c0.4,0.2,0.7,0.2,1.1,0.2c0.6,0,1.1-0.2,1.6-0.6l11.4-9.5c0.1-0.1,0.3-0.1,0.4-0.1h27.3
					c5,0,9.1-4,9.1-9V30.8c0-4.9-4.1-9-9.1-9H10.4c-5,0-9.1,4-9.1,9v30.7c0,4.9,4.1,9,9,9h2.3c0.3,0,0.6,0.3,0.6,0.6v7.2
					C13.2,79.2,13.8,80.1,14.7,80.5z M16,78.3c-0.1,0-0.2,0-0.3-0.1c-0.2-0.1-0.4-0.3-0.4-0.6v-9.3h-5.1c-3.9,0-7-3.1-7-6.8V30.8
					c0-3.8,3.1-6.8,7-6.8h46.2c3.9,0,7,3.1,7,6.8v30.7c0,3.8-3.1,6.8-7,6.8H28.2l-11.8,9.8C16.3,78.2,16.2,78.3,16,78.3z M10.4,25.2
					c-3.2,0-5.7,2.5-5.7,5.6v30.7c0,3.1,2.6,5.6,5.7,5.6H16c0.3,0,0.6,0.3,0.6,0.6v8.6l10.9-9.1c0.1-0.1,0.3-0.1,0.4-0.1h28.5
					c3.2,0,5.7-2.5,5.7-5.6V30.8c0-3.1-2.6-5.6-5.7-5.6H10.4z"/>
			</g>
		</g>
	</g>
	<g>
		<path class="st0" d="M88.1,1.3H41.9c-5,0-9.1,4-9.1,9v30.7c0,4.9,4.1,9,9.1,9h27.3c0.1,0,0.3,0.1,0.4,0.1l11.4,9.5
			c0.5,0.4,1.1,0.6,1.6,0.6c0.4,0,0.7-0.1,1.1-0.2c0.9-0.5,1.5-1.3,1.5-2.3v-7.2c0-0.3,0.3-0.6,0.6-0.6h2.3c5,0,9-4,9-9V10.2
			C97.2,5.3,93.1,1.3,88.1,1.3z M95.1,40.9c0,3.8-3.1,6.8-7,6.8h-5.1v9.3c0,0.2-0.1,0.5-0.4,0.6c-0.1,0-0.2,0.1-0.3,0.1
			c0,0-0.1,0-0.1,0c-0.1,0-0.2-0.1-0.3-0.1l-11.8-9.8H41.9c-3.9,0-7-3.1-7-6.8V10.2c0-3.8,3.1-6.8,7-6.8h46.2c3.9,0,7,3.1,7,6.8
			V40.9z"/>
		<path class="st1" d="M88.1,0H41.9c-5.7,0-10.4,4.6-10.4,10.2v30.7c0,5.6,4.6,10.2,10.4,10.2H69l11.2,9.4c0,0,0,0,0,0
			c0.7,0.6,1.6,0.9,2.4,0.9c0.6,0,1.1-0.1,1.6-0.3c0,0,0,0,0,0c1.3-0.7,2.2-2,2.2-3.4v-6.5h1.7c5.7,0,10.3-4.6,10.3-10.2V10.2
			C98.5,4.6,93.8,0,88.1,0z M97.8,40.9c0,5.3-4.3,9.6-9.7,9.6h-2.3v7.2c0,1.2-0.7,2.3-1.8,2.8c-0.5,0.2-0.9,0.3-1.4,0.3
			c-0.7,0-1.4-0.3-2-0.7l-11.4-9.5H41.9c-5.4,0-9.7-4.3-9.7-9.6V10.2c0-5.3,4.4-9.6,9.7-9.6h46.2c5.4,0,9.7,4.3,9.7,9.6V40.9z"/>
		<path class="st1" d="M70.2,47.8L82,57.6c0.1,0.1,0.2,0.1,0.3,0.1c-0.1,0-0.2-0.1-0.3-0.1L70.2,47.8z"/>
		<path class="st1" d="M88.1,0.6H41.9c-5.3,0-9.7,4.3-9.7,9.6v30.7c0,5.3,4.3,9.6,9.7,9.6h27.3L80.7,60c0.6,0.5,1.3,0.7,2,0.7
			c0.5,0,0.9-0.1,1.4-0.3c1.1-0.5,1.8-1.6,1.8-2.8v-7.2h2.3c5.3,0,9.7-4.3,9.7-9.6V10.2C97.8,5,93.5,0.6,88.1,0.6z M97.2,40.9
			c0,4.9-4.1,9-9,9h-2.3c-0.3,0-0.6,0.3-0.6,0.6v7.2c0,0.9-0.6,1.8-1.5,2.3c-0.4,0.2-0.7,0.2-1.1,0.2c-0.6,0-1.1-0.2-1.6-0.6
			L69.7,50c-0.1-0.1-0.3-0.1-0.4-0.1H41.9c-5,0-9.1-4-9.1-9V10.2c0-4.9,4.1-9,9.1-9h46.2c5,0,9.1,4,9.1,9V40.9z"/>
		<path class="st2" d="M88.1,4.6H41.9c-3.2,0-5.7,2.5-5.7,5.6v30.7c0,3.1,2.6,5.6,5.7,5.6h28.5c0,0,0.1,0,0.1,0
			c0.1,0,0.2,0.1,0.3,0.1l10.9,9.1v-8.6c0-0.3,0.3-0.6,0.6-0.6h5.7c3.2,0,5.7-2.5,5.7-5.6V10.2C93.8,7.1,91.3,4.6,88.1,4.6z"/>
		<path class="st2" d="M70.6,46.5c0.1,0,0.2,0.1,0.3,0.1l10.9,9.1l-10.9-9.1C70.8,46.6,70.7,46.5,70.6,46.5z"/>
		<path class="st1" d="M88.1,3.4H41.9c-3.9,0-7,3.1-7,6.8v30.7c0,3.8,3.1,6.8,7,6.8h28.3L82,57.6c0.1,0.1,0.2,0.1,0.3,0.1
			c0,0,0.1,0,0.1,0c0.1,0,0.2,0,0.3-0.1c0.2-0.1,0.4-0.3,0.4-0.6v-9.3h5.1c3.9,0,7-3.1,7-6.8V10.2C95.1,6.5,92,3.4,88.1,3.4z
			 M94.5,40.9c0,3.4-2.8,6.2-6.4,6.2h-5.7v9.9l-12-9.9H41.9c-3.5,0-6.4-2.8-6.4-6.2V10.2c0-3.4,2.8-6.2,6.4-6.2h46.2
			c3.5,0,6.4,2.8,6.4,6.2V40.9z"/>
		<path class="st1" d="M88.1,4H41.9c-3.5,0-6.4,2.8-6.4,6.2v30.7c0,3.4,2.8,6.2,6.4,6.2h28.5l12,9.9v-9.9h5.7c3.5,0,6.4-2.8,6.4-6.2
			V10.2C94.5,6.8,91.6,4,88.1,4z M93.8,40.9c0,3.1-2.6,5.6-5.7,5.6h-5.7c-0.3,0-0.6,0.3-0.6,0.6v8.6l-10.9-9.1
			c-0.1-0.1-0.2-0.1-0.3-0.1c0,0-0.1,0-0.1,0H41.9c-3.2,0-5.7-2.5-5.7-5.6V10.2c0-3.1,2.6-5.6,5.7-5.6h46.2c3.2,0,5.7,2.5,5.7,5.6
			V40.9z"/>
	</g>
</g>
</svg>
