<?xml version="1.0" encoding="utf-8"?>
<!-- Generator: Adobe Illustrator 22.1.0, SVG Export Plug-In . SVG Version: 6.00 Build 0)  -->
<svg version="1.1" id="Layer_1" xmlns="http://www.w3.org/2000/svg" xmlns:xlink="http://www.w3.org/1999/xlink" x="0px" y="0px"
	 viewBox="0 0 100 100" style="enable-background:new 0 0 100 100;" xml:space="preserve">
<style type="text/css">
	.st0{fill:#010101;}
</style>
<path class="st0" d="M99.5,76.7L71.3,48.5l13.4-13.4l0,0c0.3-0.3,0.3-0.5,0.5-0.8c0,0,0,0,0-0.3l0,0l7.5-22.8c0.3-1.1,0-2.1-0.5-2.7
	c-0.8-0.8-1.9-1.1-2.7-0.5l-22.8,7.5l0,0c0,0,0,0-0.3,0c-0.3,0-0.5,0.3-0.8,0.5l0,0L52.3,29.5L23.6,0.8c-1.1-1.1-2.7-1.1-3.8,0
	l-19,19c-1.1,1.1-1.1,2.7,0,3.8l28.7,28.7L5.1,76.7c-1.6,1.6-2.4,3.5-2.4,5.6c0,2.1,0.8,4.3,2.4,5.6l7.5,7.5
	c1.6,1.6,3.5,2.4,5.6,2.4s4.3-0.8,5.6-2.4L48.3,71l28.2,28.2c0.5,0.5,1.3,0.8,1.9,0.8c0.5,0,1.3-0.3,1.9-0.8l19-19
	c0.5-0.5,0.8-1.1,0.8-1.9C100,77.5,100,77.2,99.5,76.7z M29.8,82.3L26,78.6l49.3-49.3l3.8,3.8L29.8,82.3z M67.8,21.7l3.8,3.8
	L22.3,74.8L18.5,71L67.8,21.7z M81.8,27.9l-6.7-6.7l-2.4-2.4l13.7-4.6L81.8,27.9z M25.5,40.5l5.6-5.6c1.1-1.1,1.1-2.7,0-3.8
	s-2.7-1.1-3.8,0l-5.6,5.6l-5.6-5.6l5.6-5.6c1.1-1.1,1.1-2.7,0-3.8s-2.7-1.1-3.8,0l-5.6,5.6l-5.6-5.6L22,6.4l26.8,26.8L33.5,48.5
	L25.5,40.5z M20.4,91.7c-1.1,1.1-2.7,1.1-3.8,0l-7.5-7.5c-0.5-0.5-0.8-1.1-0.8-1.9c0-0.8,0.3-1.3,0.8-1.9l5.6-5.6L26,86.1L20.4,91.7
	z M78.6,93.6l-5.6-5.6l5.6-5.6c1.1-1.1,1.1-2.7,0-3.8c-1.1-1.1-2.7-1.1-3.8,0l-5.6,5.6l-5.6-5.6l5.6-5.6c1.1-1.1,1.1-2.7,0-3.8
	c-1.1-1.1-2.7-1.1-3.8,0l-5.9,5.6l-7.2-7.2l15.3-15.3l26.3,26.3L78.6,93.6z"/>
</svg>
