<?xml version="1.0" encoding="utf-8"?>
<!-- Generator: Adobe Illustrator 22.1.0, SVG Export Plug-In . SVG Version: 6.00 Build 0)  -->
<svg version="1.1" id="Layer_1" xmlns="http://www.w3.org/2000/svg" xmlns:xlink="http://www.w3.org/1999/xlink" x="0px" y="0px"
	 viewBox="0 0 94.8 65.5" style="enable-background:new 0 0 94.8 65.5;" xml:space="preserve">
<style type="text/css">
	.st0{fill:#010101;}
</style>
<g>
	<path class="st0" d="M93.7,54.7l-11-7.9V30.8l0,0V8.1V3.5c0-1.9-1.6-3.5-3.5-3.5h-4.5L48.7,0.1H19.1h-3.6c-1.9,0-3.5,1.6-3.5,3.5
		v3.5v39.6l-10.8,8C-1.9,59.3,1.5,65.5,7,65.5h80.8C93.4,65.5,96.8,59.2,93.7,54.7z M49.4,2c0.2,0,0.4,0.1,0.4,0.4
		c0,0.1-0.1,0.2-0.2,0.2c-0.2,0-0.4-0.1-0.4-0.4C49.2,2.1,49.3,2,49.4,2z M46.3,2c0.1-0.4,0.4-0.9,1-1c0.9-0.1,1.5,0.5,1.4,1.4
		c-0.1,0.4-0.4,0.9-1,1C46.8,3.6,46.1,2.9,46.3,2z M16.9,31.2V16.6V6.7c0-1.2,1-2.1,2.1-2.1h29.7h26.1c1.7,0,3,1.4,3,3v23.3v6.1V45
		H67.6H26.8H17V31.2H16.9z M87.7,60.6H7c-1.7,0-2.8-1.9-1.8-3.3L15.7,50h63.2l10.5,7.3C90.5,58.7,89.4,60.6,87.7,60.6z"/>
	<path class="st0" d="M76.7,52.2H18.2l-5,3.9c-0.6,0.5-0.3,1.5,0.5,1.5h67.5c0.7,0,1.2-1,0.5-1.5L76.7,52.2z"/>
	<path class="st0" d="M43.4,41c0.1,0,0.2,0.1,0.3,0.1c1.2,0.3,2.4,0.4,3.7,0.4s2.6-0.2,3.7-0.4c0.1,0,0.2,0,0.3-0.1
		c7.3-1.8,12.8-8.4,12.8-16.3C64.2,15.5,56.7,8,47.4,8s-16.8,7.5-16.8,16.8C30.6,32.6,36,39.2,43.4,41z M33.9,26.4h3.8
		c0.3,4,1.5,7.5,2.6,10C36.9,34.2,34.4,30.6,33.9,26.4z M45.8,11.3v11.9h-4.9c0.2-3.6,1.3-7.7,4-11.8C45.3,11.4,45.5,11.3,45.8,11.3
		z M49.1,11.3L49.1,11.3c0.1,0.1,4.7,4.4,5.1,11.9H49L49.1,11.3C49,11.3,49,11.3,49.1,11.3z M49,38.2V26.4h5.2
		c-0.3,3.4-1.6,7.3-4.3,11.7C49.5,38.2,49.3,38.2,49,38.2z M45.8,26.4v11.9c-0.3,0-0.6-0.1-1-0.1c-0.9-1.5-3.4-6-3.9-11.7h4.9V26.4z
		 M54.5,36.3c1.7-3.6,2.7-6.9,2.9-9.9h3.5C60.4,30.5,57.9,34.1,54.5,36.3z M60.8,23.2h-3.4c-0.2-4.1-1.6-7.5-3-10
		C57.9,15.3,60.4,18.9,60.8,23.2z M40.3,13.2c-1.7,3.4-2.3,6.8-2.6,9.9h-3.8C34.4,18.9,36.8,15.3,40.3,13.2z"/>
</g>
</svg>
