<?xml version="1.0" encoding="utf-8"?>
<!-- Generator: Adobe Illustrator 22.1.0, SVG Export Plug-In . SVG Version: 6.00 Build 0)  -->
<svg version="1.1" id="Layer_1" xmlns="http://www.w3.org/2000/svg" xmlns:xlink="http://www.w3.org/1999/xlink" x="0px" y="0px"
	 viewBox="0 0 77.5 90.1" style="enable-background:new 0 0 77.5 90.1;" xml:space="preserve">
<style type="text/css">
	.st0{fill:#010101;}
</style>
<path class="st0" d="M70.8,90.1h6.8L60.8,66.3h0.4c3.2,0,5.6-2.4,5.6-5.6V11.1c0-3.2-2.4-5.6-5.6-5.6h-6.8L52,0H25.7l-2.6,5.4h-6.8
	c-3.2,0-5.6,2.4-5.6,5.6v49.6c0,3.2,2.4,5.6,5.6,5.6h0.4L0,90.1h6.9l4.7-6.8h54.6L70.8,90.1z M61.4,55.6c0,2.3-1.9,4.1-4.1,4.1h-6.2
	c-2.3,0-4.1-1.9-4.1-4.1s1.9-4.1,4.1-4.1h6.2C59.7,51.6,61.4,53.3,61.4,55.6z M42.4,11.8c0,2.1-1.7,3.6-3.6,3.6s-3.6-1.7-3.6-3.6
	s1.7-3.6,3.6-3.6S42.4,9.8,42.4,11.8z M16.5,17.8h44.9v26.3H16.5V17.8z M16.3,55.6c0-2.3,1.9-4.1,4.1-4.1h6.2c2.3,0,4.1,1.9,4.1,4.1
	s-1.9,4.1-4.1,4.1h-6.2C18,59.7,16.3,57.8,16.3,55.6z M54.3,66.3l3.4,4.7H20.3l3.4-4.7H54.3z M14.3,79.6l3.4-4.9h42.4l3.4,4.9H14.3z
	"/>
</svg>
